<svg width="517" height="184" viewBox="0 0 517 184" fill="none" xmlns="http://www.w3.org/2000/svg">
<path d="M0.5 32.41C0.5 50.01 0.5 68.687 0.5 86.287C0.5 103.887 14.8785 118.154 32.616 118.154C50.3535 118.154 74.2805 108.658 97.9192 118.154C136.652 133.713 130.23 198.086 150.664 180.586C171.098 163.086 152.454 133.222 204.973 118.154C257.492 103.086 484.384 118.154 484.384 118.154C484.384 118.154 516.5 112.086 516.5 86.287C516.5 60.488 516.5 32.41 516.5 32.41C516.5 14.81 502.122 0.542999 484.384 0.542999C484.384 0.542999 50.3535 0.542999 32.616 0.542999C14.8785 0.542999 0.5 14.81 0.5 32.41Z" fill="#C62933"/>
</svg>
