<svg width="513" height="184" viewBox="0 0 513 184" fill="none" xmlns="http://www.w3.org/2000/svg">
<path d="M512.5 31.867C512.5 49.467 512.5 68.144 512.5 85.744C512.5 103.344 498.233 117.611 480.633 117.611C463.033 117.611 439.291 108.115 415.836 117.611C377.404 133.17 383.776 197.543 363.5 180.043C343.224 162.543 361.724 132.679 309.612 117.611C257.5 102.543 32.367 117.611 32.367 117.611C32.367 117.611 0.5 111.543 0.5 85.744C0.5 59.945 0.5 31.867 0.5 31.867C0.5 14.267 14.767 0 32.367 0C32.367 0 463.033 0 480.633 0C498.233 0 512.5 14.267 512.5 31.867Z" fill="#C62933"/>
</svg>
