<svg width="53" height="50" viewBox="0 0 53 50" fill="none" xmlns="http://www.w3.org/2000/svg">
<path d="M44.5834 0.292999H8.41669C4.02502 0.292999 0.666687 3.65133 0.666687 8.043V46.793C0.666687 47.8263 1.18335 48.6013 1.95835 49.118C2.47502 49.3763 2.73335 49.3763 3.25002 49.3763C3.76669 49.3763 4.28335 49.3763 4.54169 49.118L16.1667 41.8847C16.6834 41.6263 17.2 41.6263 17.7167 41.6263H44.5834C48.975 41.6263 52.3334 38.268 52.3334 33.8763V8.043C52.3334 3.65133 48.975 0.292999 44.5834 0.292999V0.292999ZM16.1667 23.543C14.6167 23.543 13.5834 22.5097 13.5834 20.9597C13.5834 19.4097 14.6167 18.3763 16.1667 18.3763C17.7167 18.3763 18.75 19.4097 18.75 20.9597C18.75 22.5097 17.7167 23.543 16.1667 23.543ZM26.5 23.543C24.95 23.543 23.9167 22.5097 23.9167 20.9597C23.9167 19.4097 24.95 18.3763 26.5 18.3763C28.05 18.3763 29.0834 19.4097 29.0834 20.9597C29.0834 22.5097 28.05 23.543 26.5 23.543ZM36.8334 23.543C35.2834 23.543 34.25 22.5097 34.25 20.9597C34.25 19.4097 35.2834 18.3763 36.8334 18.3763C38.3834 18.3763 39.4167 19.4097 39.4167 20.9597C39.4167 22.5097 38.3834 23.543 36.8334 23.543Z" fill="black"/>
</svg>
